<svg width="260" height="260" viewBox="0 0 260 260" fill="none" xmlns="http://www.w3.org/2000/svg">
<mask id="mask0_523_767" style="mask-type:luminance" maskUnits="userSpaceOnUse" x="0" y="0" width="260" height="260">
<path d="M0 0H260V260H0V0Z" fill="white"/>
</mask>
<g mask="url(#mask0_523_767)">
<mask id="mask1_523_767" style="mask-type:luminance" maskUnits="userSpaceOnUse" x="0" y="0" width="260" height="260">
<path d="M71.899 0H188.101C227.81 0 260 32.1921 260 71.9029V188.097C260 227.808 227.81 260 188.101 260H71.899C32.1903 260 0 227.808 0 188.097V71.9029C0 32.1921 32.1903 0 71.899 0Z" fill="white"/>
</mask>
<g mask="url(#mask1_523_767)">
<path d="M0 0H260V260H0V0Z" fill="#615FFF" fill-opacity="0.101961"/>
</g>
</g>
<path fill-rule="evenodd" clip-rule="evenodd" d="M69.1905 69.3681H73.5114V52.0405H69.1905C54.8309 52.0405 43.2078 63.6786 43.2078 78.0247V108.344C43.2078 111.067 41.9115 113.63 39.7367 115.272L29.3379 123.065C27.2638 124.62 25.9964 127.04 25.8812 129.633C25.7805 132.24 26.8462 134.746 28.7905 136.475L40.2984 146.701C42.142 148.343 43.2078 150.691 43.2078 153.168V181.961C43.2078 196.322 54.8309 207.945 69.1905 207.945H73.5114V190.632H69.1905C64.3944 190.632 60.52 186.743 60.52 181.961V153.168C60.52 145.751 57.3513 138.678 51.8063 133.752L48.22 130.569L50.1355 129.129C56.6744 124.217 60.52 116.526 60.52 108.344V78.0247C60.52 73.2427 64.3944 69.3681 69.1905 69.3681Z" fill="#7C86FF"/>
<path fill-rule="evenodd" clip-rule="evenodd" d="M191.644 69.3681H187.309V52.0405H191.644C205.989 52.0405 217.627 63.6786 217.627 78.0247V108.344C217.627 111.067 218.909 113.63 221.083 115.272L231.482 123.065C233.556 124.62 234.824 127.04 234.939 129.633C235.04 132.24 233.974 134.746 232.03 136.475L220.536 146.701C218.678 148.343 217.627 150.691 217.627 153.168V181.961C217.627 196.322 205.989 207.945 191.644 207.945H187.309V190.632H191.644C196.426 190.632 200.3 186.743 200.3 181.961V153.168C200.3 145.751 203.469 138.678 209.028 133.752L212.6 130.569L210.699 129.129C204.146 124.217 200.3 116.526 200.3 108.344V78.0247C200.3 73.2427 196.426 69.3681 191.644 69.3681Z" fill="#7C86FF"/>
<path d="M107.803 161.485C119.268 156.141 127.233 145.137 127.233 126.023V80.3351C127.233 78.3186 126.153 77.2383 124.136 77.2383H107.112C105.096 77.2383 104.015 78.3186 104.015 80.3351V179.446C104.015 181.463 105.096 182.543 107.112 182.543H160.374C162.39 182.543 163.47 181.463 163.47 179.446V164.582C163.47 162.565 162.39 161.485 160.374 161.485H107.803Z" fill="#7C86FF"/>
</svg>
